<mxfile host="Electron" modified="2024-07-02T15:46:22.781Z" agent="Mozilla/5.0 (Macintosh; Intel Mac OS X 10_15_7) AppleWebKit/537.36 (KHTML, like Gecko) draw.io/24.6.4 Chrome/124.0.6367.207 Electron/30.0.6 Safari/537.36" version="24.6.4" etag="MI65YMhZNuROcc7yP9Ee" type="device">
  <diagram id="V4lAulNeN_WDX5JnY8aY" name="pilot5">
    <mxGraphModel dx="857" dy="536" grid="1" gridSize="10" guides="1" tooltips="1" connect="1" arrows="1" fold="1" page="1" pageScale="1" pageWidth="850" pageHeight="1100" math="0" shadow="0">
      <root>
        <mxCell id="0" />
        <mxCell id="1" parent="0" />
        <mxCell id="mLb4iFboR8zkR100jdQ6-1" value="" style="rounded=0;whiteSpace=wrap;html=1;rotation=90;fontFamily=Helvetica;" parent="1" vertex="1">
          <mxGeometry x="833.94" y="-20.00000000000003" width="115.29" height="661.44" as="geometry" />
        </mxCell>
        <mxCell id="mLb4iFboR8zkR100jdQ6-2" value="aerOS Building" style="rounded=0;whiteSpace=wrap;html=1;fillColor=#dae8fc;strokeColor=#6c8ebf;fontFamily=Helvetica;" parent="1" vertex="1">
          <mxGeometry x="1074.25" y="273.7" width="129.5" height="30" as="geometry" />
        </mxCell>
        <mxCell id="mLb4iFboR8zkR100jdQ6-3" value="Class" style="rounded=0;whiteSpace=wrap;html=1;fontFamily=Helvetica;" parent="1" vertex="1">
          <mxGeometry x="577.75" y="283.71" width="139.5" height="30" as="geometry" />
        </mxCell>
        <mxCell id="mLb4iFboR8zkR100jdQ6-4" value="Data Property: datatype" style="rounded=0;whiteSpace=wrap;html=1;fontFamily=Helvetica;" parent="1" vertex="1">
          <mxGeometry x="577.75" y="313.71" width="139.5" height="30" as="geometry" />
        </mxCell>
        <mxCell id="mLb4iFboR8zkR100jdQ6-5" value="Object Property" style="endArrow=classic;html=1;rounded=0;labelPosition=right;verticalLabelPosition=bottom;align=center;verticalAlign=middle;fontFamily=Helvetica;" parent="1" edge="1">
          <mxGeometry width="50" height="50" relative="1" as="geometry">
            <mxPoint x="886.25" y="289.08000000000004" as="sourcePoint" />
            <mxPoint x="1046.25" y="289.36" as="targetPoint" />
            <mxPoint as="offset" />
          </mxGeometry>
        </mxCell>
        <mxCell id="mLb4iFboR8zkR100jdQ6-6" value="&lt;font style=&quot;font-size: 11px;&quot; color=&quot;#000000&quot;&gt;rdf:type&lt;/font&gt;" style="endArrow=open;html=1;fontColor=#000099;endFill=0;dashed=1;endSize=8;rounded=0;fontSize=8;labelPosition=center;verticalLabelPosition=bottom;align=center;verticalAlign=middle;fontFamily=Helvetica;" parent="1" edge="1">
          <mxGeometry width="50" height="50" relative="1" as="geometry">
            <mxPoint x="886.25" y="337.36000000000024" as="sourcePoint" />
            <mxPoint x="1046.25" y="337.36" as="targetPoint" />
            <mxPoint as="offset" />
          </mxGeometry>
        </mxCell>
        <mxCell id="mLb4iFboR8zkR100jdQ6-7" value="subClassOf" style="endArrow=block;html=1;fontColor=#000000;endFill=0;endSize=8;arcSize=0;rounded=0;fontFamily=Helvetica;" parent="1" edge="1">
          <mxGeometry width="50" height="50" relative="1" as="geometry">
            <mxPoint x="886.25" y="314.3600000000001" as="sourcePoint" />
            <mxPoint x="1046.25" y="314.36" as="targetPoint" />
          </mxGeometry>
        </mxCell>
        <mxCell id="mLb4iFboR8zkR100jdQ6-8" value="&lt;b style=&quot;font-size: 10px;&quot;&gt;&lt;font data-font-src=&quot;https://fonts.googleapis.com/css?family=Roboto+Condensed&quot;&gt;Legend&lt;/font&gt;&lt;/b&gt;" style="text;html=1;strokeColor=none;fillColor=none;align=center;verticalAlign=middle;whiteSpace=wrap;rounded=0;fontSize=10;fontFamily=Helvetica;" parent="1" vertex="1">
          <mxGeometry x="566.25" y="253.70000000000002" width="50" height="20" as="geometry" />
        </mxCell>
        <mxCell id="mLb4iFboR8zkR100jdQ6-9" value="&lt;u&gt;Individual&lt;/u&gt;" style="rounded=0;whiteSpace=wrap;html=1;fontFamily=Helvetica;" parent="1" vertex="1">
          <mxGeometry x="736.25" y="298.71" width="129.5" height="30" as="geometry" />
        </mxCell>
        <mxCell id="5fMTM_yUQj7tKh12GMyz-2" value="&lt;div&gt;&lt;b&gt;dc:title&lt;/b&gt;: YANG Catalog Ontology&lt;br&gt;&lt;/div&gt;&lt;div&gt;&lt;b&gt;dc:created&lt;/b&gt;: &quot;2024-07-02&quot;^^xsd:date&lt;/div&gt;&lt;div&gt;&lt;b&gt;dc:creator:&lt;/b&gt;&amp;nbsp;Ignacio Dominguez Martinez-Casanueva&lt;br&gt;&lt;/div&gt;&lt;div&gt;&lt;b&gt;owl:versionInfo&lt;/b&gt;: 1.0.0&lt;br&gt;&lt;/div&gt;" style="shape=document;whiteSpace=wrap;html=1;boundedLbl=1;labelBackgroundColor=#ffffff;strokeColor=#000000;fontSize=12;fontColor=#000000;size=0.13333333333333333;align=left;spacingLeft=10;" parent="1" vertex="1">
          <mxGeometry x="230" y="253.72" width="311" height="120" as="geometry" />
        </mxCell>
        <mxCell id="MMhxp2RpZaPXFtDsb9Ic-6" value="Reused Class" style="rounded=0;whiteSpace=wrap;html=1;fillColor=#f5f5f5;strokeColor=#666666;fontFamily=Helvetica;fontColor=#333333;" parent="1" vertex="1">
          <mxGeometry x="1074.25" y="313.71" width="129.5" height="30" as="geometry" />
        </mxCell>
        <mxCell id="7pKTagEgV_TqgitrA6XD-2" value="&lt;div style=&quot;border-color: var(--border-color);&quot;&gt;&lt;b style=&quot;border-color: var(--border-color);&quot;&gt;yc&lt;/b&gt;:&amp;nbsp;&lt;span style=&quot;white-space: pre;&quot;&gt;&lt;font style=&quot;&quot; face=&quot;Helvetica&quot;&gt;https://w3id.org/yang/catalog#&lt;/font&gt;&lt;/span&gt;&lt;/div&gt;&lt;div style=&quot;border-color: var(--border-color);&quot;&gt;&lt;b style=&quot;background-color: initial; border-color: var(--border-color);&quot;&gt;dcterms:&amp;nbsp;&lt;/b&gt;&lt;span style=&quot;background-color: initial;&quot;&gt;http://purl.org/dc/terms/&lt;/span&gt;&lt;br&gt;&lt;/div&gt;&lt;b style=&quot;border-color: var(--border-color);&quot;&gt;&lt;div style=&quot;&quot;&gt;&lt;/div&gt;&lt;/b&gt;" style="shape=note;whiteSpace=wrap;html=1;backgroundOutline=1;darkOpacity=0.05;size=13;align=left;spacingLeft=10;" parent="1" vertex="1">
          <mxGeometry x="230" y="393.73" width="310" height="66.27" as="geometry" />
        </mxCell>
        <mxCell id="-U4SR4fcINFbDXNsC2DA-2" value="yc:Datastore" style="rounded=0;whiteSpace=wrap;html=1;snapToPoint=1;points=[[0.1,0],[0.2,0],[0.3,0],[0.4,0],[0.5,0],[0.6,0],[0.7,0],[0.8,0],[0.9,0],[0,0.1],[0,0.3],[0,0.5],[0,0.7],[0,0.9],[0.1,1],[0.2,1],[0.3,1],[0.4,1],[0.5,1],[0.6,1],[0.7,1],[0.8,1],[0.9,1],[1,0.1],[1,0.3],[1,0.5],[1,0.7],[1,0.9]];fillColor=#dae8fc;strokeColor=#6c8ebf;" vertex="1" parent="1">
          <mxGeometry x="590" y="400.00000000000006" width="110" height="30" as="geometry" />
        </mxCell>
        <mxCell id="-U4SR4fcINFbDXNsC2DA-6" value="yc:moduleSet" style="edgeStyle=orthogonalEdgeStyle;rounded=0;orthogonalLoop=1;jettySize=auto;html=1;exitDx=0;exitDy=0;entryX=0;entryY=0.5;entryDx=0;entryDy=0;exitX=1;exitY=0.5;" edge="1" parent="1" source="-U4SR4fcINFbDXNsC2DA-3" target="-U4SR4fcINFbDXNsC2DA-4">
          <mxGeometry relative="1" as="geometry" />
        </mxCell>
        <mxCell id="-U4SR4fcINFbDXNsC2DA-12" value="yc:importsOnlyModule" style="edgeStyle=orthogonalEdgeStyle;rounded=0;orthogonalLoop=1;jettySize=auto;html=1;exitX=0.7;exitY=1;exitDx=0;exitDy=0;entryX=0.7;entryY=0;entryDx=0;entryDy=0;" edge="1" parent="1" source="-U4SR4fcINFbDXNsC2DA-4" target="-U4SR4fcINFbDXNsC2DA-9">
          <mxGeometry x="-0.4481" y="20" relative="1" as="geometry">
            <Array as="points" />
            <mxPoint as="offset" />
          </mxGeometry>
        </mxCell>
        <mxCell id="-U4SR4fcINFbDXNsC2DA-4" value="yc:ModuleSet" style="rounded=0;whiteSpace=wrap;html=1;snapToPoint=1;points=[[0.1,0],[0.2,0],[0.3,0],[0.4,0],[0.5,0],[0.6,0],[0.7,0],[0.8,0],[0.9,0],[0,0.1],[0,0.3],[0,0.5],[0,0.7],[0,0.9],[0.1,1],[0.2,1],[0.3,1],[0.4,1],[0.5,1],[0.6,1],[0.7,1],[0.8,1],[0.9,1],[1,0.1],[1,0.3],[1,0.5],[1,0.7],[1,0.9]];fillColor=#dae8fc;strokeColor=#6c8ebf;" vertex="1" parent="1">
          <mxGeometry x="1060" y="399.99999999999994" width="100" height="30" as="geometry" />
        </mxCell>
        <mxCell id="-U4SR4fcINFbDXNsC2DA-5" value="yc:schema" style="edgeStyle=orthogonalEdgeStyle;rounded=0;orthogonalLoop=1;jettySize=auto;html=1;entryX=0;entryY=0.5;entryDx=0;entryDy=0;exitX=1;exitY=0.5;exitDx=0;exitDy=0;" edge="1" parent="1" source="-U4SR4fcINFbDXNsC2DA-2" target="-U4SR4fcINFbDXNsC2DA-3">
          <mxGeometry relative="1" as="geometry">
            <Array as="points">
              <mxPoint x="700" y="414.56" />
              <mxPoint x="750" y="414.56" />
            </Array>
            <mxPoint x="990" y="388.56" as="sourcePoint" />
            <mxPoint x="1040" y="253.55999999999977" as="targetPoint" />
          </mxGeometry>
        </mxCell>
        <mxCell id="-U4SR4fcINFbDXNsC2DA-7" value="dcterms:title xsd:string" style="rounded=0;whiteSpace=wrap;html=1;snapToPoint=1;points=[[0.1,0],[0.2,0],[0.3,0],[0.4,0],[0.5,0],[0.6,0],[0.7,0],[0.8,0],[0.9,0],[0,0.1],[0,0.3],[0,0.5],[0,0.7],[0,0.9],[0.1,1],[0.2,1],[0.3,1],[0.4,1],[0.5,1],[0.6,1],[0.7,1],[0.8,1],[0.9,1],[1,0.1],[1,0.3],[1,0.5],[1,0.7],[1,0.9]];align=left;spacingLeft=10;dashed=1;" vertex="1" parent="1">
          <mxGeometry x="810" y="430.00000000000006" width="150" height="30" as="geometry" />
        </mxCell>
        <mxCell id="-U4SR4fcINFbDXNsC2DA-10" value="yc:Submodule" style="rounded=0;whiteSpace=wrap;html=1;snapToPoint=1;points=[[0.1,0],[0.2,0],[0.3,0],[0.4,0],[0.5,0],[0.6,0],[0.7,0],[0.8,0],[0.9,0],[0,0.1],[0,0.3],[0,0.5],[0,0.7],[0,0.9],[0.1,1],[0.2,1],[0.3,1],[0.4,1],[0.5,1],[0.6,1],[0.7,1],[0.8,1],[0.9,1],[1,0.1],[1,0.3],[1,0.5],[1,0.7],[1,0.9]];fillColor=#dae8fc;strokeColor=#6c8ebf;" vertex="1" parent="1">
          <mxGeometry x="660" y="551.44" width="165" height="30" as="geometry" />
        </mxCell>
        <mxCell id="-U4SR4fcINFbDXNsC2DA-22" value="yc:implementsModule" style="edgeStyle=orthogonalEdgeStyle;rounded=0;orthogonalLoop=1;jettySize=auto;html=1;exitX=0.2;exitY=1;exitDx=0;exitDy=0;entryX=0.3;entryY=0;entryDx=0;entryDy=0;" edge="1" parent="1" source="-U4SR4fcINFbDXNsC2DA-4" target="-U4SR4fcINFbDXNsC2DA-9">
          <mxGeometry relative="1" as="geometry">
            <mxPoint x="865" y="548.56" as="sourcePoint" />
            <mxPoint x="795" y="636.56" as="targetPoint" />
            <Array as="points">
              <mxPoint x="1080" y="480" />
              <mxPoint x="1065" y="480" />
            </Array>
          </mxGeometry>
        </mxCell>
        <mxCell id="-U4SR4fcINFbDXNsC2DA-23" value="yc:deviatesModule" style="edgeStyle=orthogonalEdgeStyle;rounded=0;orthogonalLoop=1;jettySize=auto;html=1;exitX=0.1;exitY=0;exitDx=0;exitDy=0;entryX=0;entryY=0.5;entryDx=0;entryDy=0;" edge="1" parent="1" source="-U4SR4fcINFbDXNsC2DA-9" target="-U4SR4fcINFbDXNsC2DA-9">
          <mxGeometry relative="1" as="geometry">
            <Array as="points">
              <mxPoint x="1032.01" y="500" />
              <mxPoint x="980.01" y="500" />
              <mxPoint x="980.01" y="553" />
              <mxPoint x="1015.01" y="553" />
            </Array>
          </mxGeometry>
        </mxCell>
        <mxCell id="-U4SR4fcINFbDXNsC2DA-24" value="yc:augmentsModule" style="edgeStyle=orthogonalEdgeStyle;rounded=0;orthogonalLoop=1;jettySize=auto;html=1;exitX=0.9;exitY=0;exitDx=0;exitDy=0;entryX=1;entryY=0.5;entryDx=0;entryDy=0;" edge="1" parent="1" source="-U4SR4fcINFbDXNsC2DA-9" target="-U4SR4fcINFbDXNsC2DA-9">
          <mxGeometry x="0.0548" relative="1" as="geometry">
            <Array as="points">
              <mxPoint x="1164" y="500" />
              <mxPoint x="1220" y="500" />
              <mxPoint x="1220" y="553" />
            </Array>
            <mxPoint as="offset" />
          </mxGeometry>
        </mxCell>
        <mxCell id="-U4SR4fcINFbDXNsC2DA-3" value="yc:Schema" style="rounded=0;whiteSpace=wrap;html=1;snapToPoint=1;points=[[0.1,0],[0.2,0],[0.3,0],[0.4,0],[0.5,0],[0.6,0],[0.7,0],[0.8,0],[0.9,0],[0,0.1],[0,0.3],[0,0.5],[0,0.7],[0,0.9],[0.1,1],[0.2,1],[0.3,1],[0.4,1],[0.5,1],[0.6,1],[0.7,1],[0.8,1],[0.9,1],[1,0.1],[1,0.3],[1,0.5],[1,0.7],[1,0.9]];fillColor=#dae8fc;strokeColor=#6c8ebf;" vertex="1" parent="1">
          <mxGeometry x="810" y="400.00000000000006" width="150" height="30" as="geometry" />
        </mxCell>
        <mxCell id="-U4SR4fcINFbDXNsC2DA-27" value="dcterms:title xsd:string&lt;div&gt;&lt;div&gt;yc:revisionDate xs:date&lt;/div&gt;&lt;/div&gt;&lt;div&gt;yc:location xsd:anyURI&lt;/div&gt;" style="rounded=0;whiteSpace=wrap;html=1;snapToPoint=1;points=[[0.1,0],[0.2,0],[0.3,0],[0.4,0],[0.5,0],[0.6,0],[0.7,0],[0.8,0],[0.9,0],[0,0.1],[0,0.3],[0,0.5],[0,0.7],[0,0.9],[0.1,1],[0.2,1],[0.3,1],[0.4,1],[0.5,1],[0.6,1],[0.7,1],[0.8,1],[0.9,1],[1,0.1],[1,0.3],[1,0.5],[1,0.7],[1,0.9]];align=left;spacingLeft=10;dashed=1;" vertex="1" parent="1">
          <mxGeometry x="1015.01" y="600" width="165" height="60" as="geometry" />
        </mxCell>
        <mxCell id="-U4SR4fcINFbDXNsC2DA-14" value="&lt;div&gt;&lt;span style=&quot;background-color: initial;&quot;&gt;yc:namespace xsd:anyURI&lt;/span&gt;&lt;/div&gt;" style="rounded=0;whiteSpace=wrap;html=1;snapToPoint=1;points=[[0.1,0],[0.2,0],[0.3,0],[0.4,0],[0.5,0],[0.6,0],[0.7,0],[0.8,0],[0.9,0],[0,0.1],[0,0.3],[0,0.5],[0,0.7],[0,0.9],[0.1,1],[0.2,1],[0.3,1],[0.4,1],[0.5,1],[0.6,1],[0.7,1],[0.8,1],[0.9,1],[1,0.1],[1,0.3],[1,0.5],[1,0.7],[1,0.9]];align=left;spacingLeft=10;" vertex="1" parent="1">
          <mxGeometry x="1015.01" y="568.22" width="165" height="31.78" as="geometry" />
        </mxCell>
        <mxCell id="-U4SR4fcINFbDXNsC2DA-30" value="yc:includesSubmodule" style="edgeStyle=orthogonalEdgeStyle;rounded=0;orthogonalLoop=1;jettySize=auto;html=1;exitX=0;exitY=0.726;exitDx=0;exitDy=0;entryX=1;entryY=0.5;entryDx=0;entryDy=0;exitPerimeter=0;" edge="1" parent="1" source="-U4SR4fcINFbDXNsC2DA-9" target="-U4SR4fcINFbDXNsC2DA-10">
          <mxGeometry relative="1" as="geometry" />
        </mxCell>
        <mxCell id="-U4SR4fcINFbDXNsC2DA-9" value="yc:Module" style="rounded=0;whiteSpace=wrap;html=1;snapToPoint=1;points=[[0.1,0],[0.2,0],[0.3,0],[0.4,0],[0.5,0],[0.6,0],[0.7,0],[0.8,0],[0.9,0],[0,0.1],[0,0.3],[0,0.5],[0,0.7],[0,0.9],[0.1,1],[0.2,1],[0.3,1],[0.4,1],[0.5,1],[0.6,1],[0.7,1],[0.8,1],[0.9,1],[1,0.1],[1,0.3],[1,0.5],[1,0.7],[1,0.9]];fillColor=#dae8fc;strokeColor=#6c8ebf;" vertex="1" parent="1">
          <mxGeometry x="1015.01" y="538.22" width="165" height="30" as="geometry" />
        </mxCell>
        <mxCell id="-U4SR4fcINFbDXNsC2DA-38" value="dcterms:title xsd:string&lt;div&gt;&lt;div&gt;yc:revisionDate xs:date&lt;/div&gt;&lt;/div&gt;&lt;div&gt;yc:location xsd:anyURI&lt;/div&gt;" style="rounded=0;whiteSpace=wrap;html=1;snapToPoint=1;points=[[0.1,0],[0.2,0],[0.3,0],[0.4,0],[0.5,0],[0.6,0],[0.7,0],[0.8,0],[0.9,0],[0,0.1],[0,0.3],[0,0.5],[0,0.7],[0,0.9],[0.1,1],[0.2,1],[0.3,1],[0.4,1],[0.5,1],[0.6,1],[0.7,1],[0.8,1],[0.9,1],[1,0.1],[1,0.3],[1,0.5],[1,0.7],[1,0.9]];align=left;spacingLeft=10;dashed=1;" vertex="1" parent="1">
          <mxGeometry x="660" y="581.44" width="165" height="60" as="geometry" />
        </mxCell>
      </root>
    </mxGraphModel>
  </diagram>
</mxfile>
